PathFileType	4	(X/Y/Z)	HSS_walk5.trc
DataRate	CameraRate	NumFrames	NumMarkers	Units	OrigDataRate	OrigDataStartFrame	OrigNumFrames
120.0	120.0	6	44	mm	120.0	946	1080
Frame#	Time		R.Shoulder		Offset		L.Shoulder		R.Elbow		R.Wrist.Radial		R.Wrist		R.Hand		L.Elbow		L.Wrist.Radial		L.Wrist		L.Hand		R.Hip		V.Sacral		L.PSIS		L.Hip		R.Thigh.Upper		R.Thigh.Front		R.Thigh.Rear		X.Shell.Lower.Thigh.Right		R.Knee.Lateral		R.Shank.Upper		R.Shank.Front		R.Shank.Rear		X.Shell.Lower.Shank.Right		R.Ankle.Lateral		R.Heel		R.Toe		L.Thigh.Upper		L.Thigh.Front		L.Thigh.Rear		X.Shell.Lower.Thigh.Left		L.Knee.Lateral		L.Shank.Upper		L.Shank.Front		L.Shank.Rear		X.Shell.Lower.Shank.Left		L.Ankle.Lateral		L.Heel		L.Toe		R.Troc		L.Troc		R.PSIS		L.ASIS		R.ASIS
			X1	Y1	Z1	X2	Y2	Z2	X3	Y3	Z3	X4	Y4	Z4	X5	Y5	Z5	X6	Y6	Z6	X7	Y7	Z7	X8	Y8	Z8	X9	Y9	Z9	X10	Y10	Z10	X11	Y11	Z11	X12	Y12	Z12	X13	Y13	Z13	X14	Y14	Z14	X15	Y15	Z15	X16	Y16	Z16	X17	Y17	Z17	X18	Y18	Z18	X19	Y19	Z19	X20	Y20	Z20	X21	Y21	Z21	X22	Y22	Z22	X23	Y23	Z23	X24	Y24	Z24	X25	Y25	Z25	X26	Y26	Z26	X27	Y27	Z27	X28	Y28	Z28	X29	Y29	Z29	X30	Y30	Z30	X31	Y31	Z31	X32	Y32	Z32	X33	Y33	Z33	X34	Y34	Z34	X35	Y35	Z35	X36	Y36	Z36	X37	Y37	Z37	X38	Y38	Z38	X39	Y39	Z39	X40	Y40	Z40	X41	Y41	Z41	X42	Y42	Z42	X43	Y43	Z43	X44	Y44	Z44

946	7.87500	3609.25244	1470.57397	-53.48140	3520.00366	1385.14124	-350.15387	3651.94531	1482.58728	-419.95212	3595.98315	1104.32568	-12.21322	3754.22656	900.97382	2.39603	3711.44775	891.31171	62.70200	3764.45972	821.00244	58.41654	3666.45923	1118.67773	-481.75565	3810.17212	928.37189	-528.94495	3841.07495	929.34991	-463.35184	3869.58252	865.08588	-519.47437	3642.85718	1030.95361	-80.73482	3548.95898	1004.50690	-246.51508	3556.68750	1013.28619	-286.79993	3694.09204	1037.83240	-375.11859	3783.66919	716.24445	-21.15924	3833.06689	695.86731	-23.71203	3777.29736	671.35657	-9.51481	nan	nan	nan	3797.09302	532.39386	-33.01433	3710.52710	413.12982	-12.71521	3720.09204	359.39285	-28.13913	3674.96362	395.26321	-39.76298	3675.43408	348.68982	-44.53063	3570.93066	163.90768	-117.80174	3537.94971	148.97232	-185.56657	3668.38135	55.02822	-71.58012	nan	nan	nan	3810.89111	650.01880	-336.93488	3762.59180	653.90961	-379.20438	3796.64038	623.54932	-362.59100	3731.83618	501.20090	-339.53235	3692.88452	299.81131	-373.20041	3712.58887	274.47696	-350.15735	3655.64380	264.94745	-364.72861	3675.22632	232.09584	-360.58154	3658.07690	74.17214	-306.09775	3593.33447	40.61760	-266.16885	nan	nan	nan	3680.07886	883.04517	-43.38081	3712.20361	890.79437	-405.62024	3542.55493	1009.46838	-202.31021	3749.77539	1002.72913	-325.67056	3710.71802	998.08344	-105.29323
947	7.88333	3616.77466	1470.80835	-53.31581	3527.70264	1385.58679	-350.66208	3660.06738	1483.35950	-419.73404	3600.37549	1105.65076	-12.03014	3752.38330	898.28241	3.74591	3708.83667	889.82544	63.53699	3760.02295	818.09149	61.25687	3680.61182	1119.39001	-482.43301	3829.77612	933.02582	-526.68689	3860.63257	935.63757	-460.93036	nan	nan	nan	3651.72437	1031.89844	-80.15836	3555.52856	1004.88293	-245.19234	3564.82349	1013.09656	-285.69989	3701.19287	1038.36133	-374.97235	3794.47681	717.64697	-21.97919	3844.21045	697.27661	-24.66385	3788.67285	672.96613	-9.79262	nan	nan	nan	3808.12500	533.81750	-34.08847	3727.87451	410.28195	-10.52745	3738.70898	356.94131	-27.10000	3692.44873	390.58435	-37.85013	3694.44995	344.05310	-42.42215	3597.71094	153.34625	-113.43980	3564.79272	136.82671	-181.25624	3702.58447	50.83035	-68.92720	nan	nan	nan	3814.45312	649.27185	-337.11362	3766.88477	653.91290	-379.39325	3800.09546	622.95343	-362.77765	3733.86182	501.06735	-339.94049	3694.12500	299.88583	-373.45639	3713.42773	274.53229	-350.32916	3656.48633	265.07278	-364.78653	3675.47510	232.19788	-360.68417	3658.26514	74.34212	-306.10583	3593.54590	40.89698	-266.01855	nan	nan	nan	3688.16284	884.94098	-42.89673	3717.98315	890.80811	-405.52039	3549.83887	1009.69208	-201.10037	3756.74390	1002.94861	-326.02032	3719.34595	998.91626	-105.40350
948	7.89167	3624.36841	1470.84412	-53.14068	3536.41650	1385.86206	-350.86050	3667.79810	1484.05359	-419.49255	3603.66016	1106.08813	-12.82941	3750.03467	894.84729	4.65698	3705.68628	888.04279	64.41414	3755.11768	814.81958	62.68017	3692.75781	1120.12524	-483.13416	3849.82739	937.88513	-524.06470	3880.01074	942.25391	-458.44098	nan	nan	nan	3660.25488	1032.44531	-79.73178	3563.89966	1004.90381	-244.22098	3562.26538	1013.88129	-281.60400	3708.23950	1038.86682	-374.74707	3804.98047	718.61353	-22.59272	3854.88330	699.03033	-26.19720	3799.68115	674.60156	-9.81023	nan	nan	nan	3818.30933	534.85614	-35.02923	3744.55127	407.17239	-9.07809	3757.99731	354.46109	-25.58509	3707.09009	385.81378	-35.94032	3713.27612	339.45987	-40.62744	3625.99170	143.28481	-109.12527	3592.40942	124.23303	-176.22273	3737.07812	47.23895	-66.19869	nan	nan	nan	3817.92480	648.59167	-337.24094	3770.84863	653.76727	-379.47095	3797.21289	623.10431	-360.95529	3735.85913	501.02890	-340.21802	3694.51538	299.86337	-373.51141	3714.23193	274.57938	-350.51404	3656.74365	265.25046	-364.77676	3676.06665	232.46451	-360.64075	3657.88965	74.48721	-305.64676	3592.77612	41.27414	-265.62891	nan	nan	nan	3697.48047	885.18756	-42.65467	3723.94751	890.83472	-405.48953	3557.27734	1010.01593	-199.83803	3763.60474	1002.99347	-326.28656	3727.95776	999.50073	-105.22178
949	7.90000	3632.02905	1470.70288	-52.71884	3543.25293	1385.87805	-350.96552	3675.53394	1484.47668	-419.31836	3606.77148	1106.81262	-13.71112	3748.16138	892.30750	6.01333	3702.62769	886.17627	64.84486	3750.40527	811.89709	63.91785	3706.41382	1120.80957	-483.63254	3869.00195	942.67218	-521.67517	3898.79907	948.98303	-456.02618	nan	nan	nan	3669.08521	1032.72461	-78.87022	3571.95312	1004.96381	-242.73775	3578.42725	1013.16034	-282.84204	3715.24756	1039.25378	-374.43747	3815.14746	719.16339	-23.03137	3865.04810	700.33978	-27.68337	3810.23169	675.64697	-10.18853	nan	nan	nan	3828.92505	535.65527	-35.30727	3760.58325	403.57651	-7.67965	3776.49976	351.86459	-23.65299	3724.50806	380.50455	-33.40094	3732.89307	334.42200	-37.41599	3654.63306	132.97659	-104.77623	3621.18237	111.70274	-171.18893	3767.44019	44.42614	-61.48955	nan	nan	nan	3821.33228	647.97601	-337.28696	3774.00220	653.61011	-379.30557	3800.98438	622.86700	-361.12839	3737.90015	501.07785	-340.48575	3694.87695	299.86432	-373.53528	3714.69556	274.54614	-350.60449	3657.37183	265.41956	-364.58820	3676.73926	232.66521	-360.70142	3657.98877	74.62844	-305.55905	nan	nan	nan	nan	nan	nan	3699.48486	886.21796	-40.45238	3730.07129	890.87067	-405.51230	3565.69702	1010.14087	-198.00757	3770.57471	1003.17273	-326.49399	3736.61938	1000.18756	-105.23550
950	7.90833	3639.63013	1470.56543	-52.41760	3550.68799	1385.99780	-351.13553	3683.34692	1484.78589	-418.81625	3610.06567	1107.01611	-13.78759	3746.24585	889.69910	7.17048	3699.95190	884.94568	65.51237	3745.60791	809.33148	65.24770	3719.14282	1121.04224	-484.15714	3887.66650	947.70355	-519.02789	3916.55737	956.21515	-453.48901	nan	nan	nan	3678.08936	1033.24915	-78.54237	3578.92920	1005.12036	-241.33195	3586.25342	1013.25421	-281.42938	3722.05029	1039.48572	-374.14621	3824.94800	719.31580	-23.32670	3874.66016	700.84332	-28.88129	3819.84644	676.01947	-10.93168	nan	nan	nan	3839.16626	536.04266	-36.16064	3776.47266	400.25906	-6.09937	3794.83081	349.56229	-22.63562	3740.32056	375.41614	-31.72388	3752.18262	329.39218	-35.20356	3684.27417	123.22963	-99.97496	3651.10645	99.38993	-166.15384	nan	nan	nan	nan	nan	nan	3824.79688	647.33374	-337.25079	3776.98633	653.50287	-378.94922	3803.61841	622.48651	-360.81570	3739.40820	501.00342	-340.70834	3695.03247	299.93585	-373.51352	3715.17310	274.59418	-350.68658	3658.15625	265.70779	-364.62775	3677.33691	232.78525	-360.70660	3657.81738	74.83694	-305.19153	3593.33472	41.97322	-263.67453	nan	nan	nan	3707.68066	886.31183	-40.32764	3736.32983	890.91241	-405.57330	3573.53833	1010.39764	-196.64967	3777.62915	1003.26825	-326.63730	3745.02124	1000.27863	-105.66299
951	7.91667	3647.42139	1470.41650	-52.11094	3559.49438	1385.72217	-350.89572	3690.67407	1484.93738	-418.64926	3613.06177	1107.43054	-14.60455	3744.52588	887.75061	8.52617	3696.72559	883.16650	66.02209	3741.29321	807.07269	66.70432	3732.48145	1121.84924	-484.64050	3905.95996	952.76227	-516.65491	3936.59839	963.39856	-451.14175	nan	nan	nan	3686.08838	1033.48779	-78.17223	3586.47241	1004.87451	-239.52516	3593.60205	1013.47284	-280.13913	3729.07202	1039.89526	-373.79913	3834.34937	719.08978	-23.51025	3883.96313	701.24152	-29.77884	3829.24146	675.97986	-11.78827	nan	nan	nan	3848.97998	536.28961	-36.80085	3792.73901	397.02472	-4.47609	3813.64746	347.11395	-22.46085	3757.22827	369.69379	-28.93649	3771.05713	324.81943	-32.57238	3714.24316	113.36213	-95.19917	3680.81958	88.15973	-160.40546	nan	nan	nan	nan	nan	nan	3829.19678	646.68823	-337.46445	3779.49438	653.34723	-378.44608	nan	nan	nan	3740.76489	500.82840	-340.89465	3695.24146	299.98755	-373.47186	3715.70337	274.58664	-350.77634	3658.96826	265.99344	-364.67102	3677.63843	233.00488	-360.72729	3657.85400	74.89258	-305.12177	3592.21338	41.81136	-264.42404	nan	nan	nan	3725.55029	885.70850	-42.52161	3742.69751	890.95618	-405.65717	3581.50830	1010.12787	-195.20117	3784.71558	1003.22784	-326.66949	3753.63623	1000.48608	-105.71613
